<?xml version="1.0" encoding="UTF-8" standalone="no"?>
<svg width="306px" height="154px" viewBox="0 0 306 154" version="1.1" xmlns="http://www.w3.org/2000/svg" xmlns:xlink="http://www.w3.org/1999/xlink">
    <!-- Generator: Sketch 48.2 (47327) - http://www.bohemiancoding.com/sketch -->
    <title>Group 8</title>
    <desc>Created with Sketch.</desc>
    <defs></defs>
    <g id="体验云移动端展示" stroke="none" stroke-width="1" fill="none" fill-rule="evenodd" transform="translate(-35.000000, -3870.000000)">
        <g id="AntV" transform="translate(18.000000, 3642.000000)">
            <g id="配图">
                <g id="Group-8" transform="translate(17.000000, 228.000000)">
                    <rect id="Rectangle-13" fill="#EB2F96" x="0" y="0.5" width="20" height="1.5"></rect>
                    <rect id="Rectangle-13" fill="#FADB14" x="22" y="0.5" width="20" height="1.5"></rect>
                    <rect id="Rectangle-13" fill="#1AC44D" x="44" y="0.5" width="20" height="1.5"></rect>
                    <rect id="Rectangle-13" fill="#13C2C2" opacity="0.8" x="88" y="44.5" width="20" height="1.5"></rect>
                    <rect id="Rectangle-13" fill="#1AC44D" opacity="0.8" x="110" y="44.5" width="20" height="1.5"></rect>
                    <rect id="Rectangle-13" fill="#13C2C2" opacity="0.8" x="88" y="132.5" width="20" height="1.5"></rect>
                    <rect id="Rectangle-13" fill="#13C2C2" opacity="0.9" x="108.5" y="46" width="1.5" height="20"></rect>
                    <rect id="Rectangle-13" fill="#1AC44D" opacity="0.9" x="108.5" y="68" width="1.5" height="20"></rect>
                    <rect id="Rectangle-13" fill="#13C2C2" opacity="0.8" x="176" y="44.5" width="20" height="1.5"></rect>
                    <rect id="Rectangle-13" fill="#1AC44D" opacity="0.8" x="198" y="44.5" width="20" height="1.5"></rect>
                    <rect id="Rectangle-13" fill="#1AC44D" opacity="0.8" x="176" y="132.5" width="20" height="1.5"></rect>
                    <rect id="Rectangle-13" fill="#13C2C2" opacity="0.8" x="198" y="132.5" width="20" height="1.5"></rect>
                    <rect id="Rectangle-13" fill="#13C2C2" opacity="0.9" x="198" y="88.5" width="20" height="1.5"></rect>
                    <rect id="Rectangle-13" fill="#1AC44D" opacity="0.9" x="176" y="88.5" width="20" height="1.5"></rect>
                    <rect id="Rectangle-13" fill="#13C2C2" x="174.5" y="46" width="1.5" height="20"></rect>
                    <rect id="Rectangle-13" fill="#FADB14" x="218.5" y="46" width="1.5" height="20"></rect>
                    <rect id="Rectangle-13" fill="#FADB14" opacity="0.8" x="174.5" y="112" width="1.5" height="20"></rect>
                    <rect id="Rectangle-13" fill="#1AC44D" opacity="0.9" x="174.5" y="68" width="1.5" height="20"></rect>
                    <rect id="Rectangle-13" fill="#13C2C2" opacity="0.9" x="218.5" y="90" width="1.5" height="20"></rect>
                    <rect id="Rectangle-13" fill="#1AC44D" opacity="0.8" x="218.5" y="112" width="1.5" height="20"></rect>
                    <rect id="Rectangle-13" fill="#FADB14" x="108.5" y="90" width="1.5" height="20"></rect>
                    <rect id="Rectangle-13" fill="#13C2C2" opacity="0.8" x="108.5" y="112" width="1.5" height="20"></rect>
                    <g id="Group-6" opacity="0.5" transform="translate(0.000000, 2.000000)" fill="#1890FF">
                        <rect id="Rectangle-13" opacity="0.08" x="0" y="0" width="20" height="20"></rect>
                        <rect id="Rectangle-13" opacity="0.1" x="22" y="0" width="20" height="20"></rect>
                        <rect id="Rectangle-13" opacity="0.1" x="44" y="0" width="20" height="20"></rect>
                        <rect id="Rectangle-13" opacity="0.1" x="66" y="0" width="20" height="20"></rect>
                        <rect id="Rectangle-13" opacity="0.15" x="88" y="0" width="20" height="20"></rect>
                        <rect id="Rectangle-13" opacity="0.15" x="110" y="0" width="20" height="20"></rect>
                        <rect id="Rectangle-13" opacity="0.2" x="132" y="0" width="20" height="20"></rect>
                        <rect id="Rectangle-13" opacity="0.2" x="154" y="0" width="20" height="20"></rect>
                        <rect id="Rectangle-13" opacity="0.15" x="176" y="0" width="20" height="20"></rect>
                        <rect id="Rectangle-13" opacity="0.15" x="198" y="0" width="20" height="20"></rect>
                        <rect id="Rectangle-13" opacity="0.1" x="220" y="0" width="20" height="20"></rect>
                        <rect id="Rectangle-13" opacity="0.1" x="242" y="0" width="20" height="20"></rect>
                        <rect id="Rectangle-13" opacity="0.1" x="264" y="0" width="20" height="20"></rect>
                        <rect id="Rectangle-13" opacity="0.08" x="286" y="0" width="20" height="20"></rect>
                    </g>
                    <g id="Group-11" opacity="0.7" transform="translate(44.000000, 24.000000)" fill="#1890FF">
                        <rect id="Rectangle-13" opacity="0.2" x="0" y="0" width="20" height="20"></rect>
                        <rect id="Rectangle-13" opacity="0.2" x="22" y="0" width="20" height="20"></rect>
                        <rect id="Rectangle-13" opacity="0.25" x="44" y="0" width="20" height="20"></rect>
                        <rect id="Rectangle-13" opacity="0.25" x="66" y="0" width="20" height="20"></rect>
                        <rect id="Rectangle-13" opacity="0.3" x="88" y="0" width="20" height="20"></rect>
                        <rect id="Rectangle-13" opacity="0.3" x="110" y="0" width="20" height="20"></rect>
                        <rect id="Rectangle-13" opacity="0.25" x="132" y="0" width="20" height="20"></rect>
                        <rect id="Rectangle-13" opacity="0.25" x="154" y="0" width="20" height="20"></rect>
                        <rect id="Rectangle-13" opacity="0.2" x="176" y="0" width="20" height="20"></rect>
                        <rect id="Rectangle-13" opacity="0.2" x="198" y="0" width="20" height="20"></rect>
                        <rect id="Rectangle-13" opacity="0.25" x="0" y="22" width="20" height="20"></rect>
                        <rect id="Rectangle-13" opacity="0.3" x="22" y="22" width="20" height="20"></rect>
                        <rect id="Rectangle-13" opacity="0.3" x="176" y="22" width="20" height="20"></rect>
                        <rect id="Rectangle-13" opacity="0.25" x="198" y="22" width="20" height="20"></rect>
                    </g>
                    <rect id="Rectangle-13" fill="#1890FF" opacity="0.25" x="44" y="68" width="20" height="20"></rect>
                    <rect id="Rectangle-13" fill="#1890FF" opacity="0.55" x="176" y="68" width="20" height="20"></rect>
                    <rect id="Rectangle-13" fill="#1890FF" opacity="0.25" x="242" y="68" width="20" height="20"></rect>
                    <rect id="Rectangle-13" fill="#1890FF" opacity="0.25" x="44" y="90" width="20" height="20"></rect>
                    <rect id="Rectangle-13" fill="#1890FF" opacity="0.3" x="66" y="90" width="20" height="20"></rect>
                    <g id="Group-12" opacity="0.8" transform="translate(66.000000, 46.000000)" fill="#1890FF">
                        <rect id="Rectangle-13" opacity="0.4" x="22" y="0" width="20" height="20"></rect>
                        <rect id="Rectangle-13" opacity="0.5" x="44" y="0" width="20" height="20"></rect>
                        <rect id="Rectangle-13" opacity="0.55" x="66" y="0" width="20" height="20"></rect>
                        <rect id="Rectangle-13" opacity="0.55" x="88" y="0" width="20" height="20"></rect>
                        <rect id="Rectangle-13" opacity="0.5" x="110" y="0" width="20" height="20"></rect>
                        <rect id="Rectangle-13" opacity="0.4" x="132" y="0" width="20" height="20"></rect>
                        <rect id="Rectangle-13" opacity="0.4" x="0" y="22" width="20" height="20"></rect>
                        <rect id="Rectangle-13" opacity="0.5" x="22" y="22" width="20" height="20"></rect>
                        <rect id="Rectangle-13" opacity="0.55" x="44" y="22" width="20" height="20"></rect>
                        <rect id="Rectangle-13" opacity="0.65" x="66" y="22" width="20" height="20"></rect>
                        <rect id="Rectangle-13" opacity="0.65" x="88" y="22" width="20" height="20"></rect>
                        <rect id="Rectangle-13" opacity="0.5" x="132" y="22" width="20" height="20"></rect>
                        <rect id="Rectangle-13" opacity="0.4" x="154" y="22" width="20" height="20"></rect>
                        <rect id="Rectangle-13" opacity="0.4" x="22" y="44" width="20" height="20"></rect>
                        <rect id="Rectangle-13" opacity="0.5" x="44" y="44" width="20" height="20"></rect>
                        <rect id="Rectangle-13" opacity="0.55" x="66" y="44" width="20" height="20"></rect>
                        <rect id="Rectangle-13" opacity="0.55" x="88" y="44" width="20" height="20"></rect>
                        <rect id="Rectangle-13" opacity="0.5" x="110" y="44" width="20" height="20"></rect>
                        <rect id="Rectangle-13" opacity="0.4" x="132" y="44" width="20" height="20"></rect>
                    </g>
                    <rect id="Rectangle-13" fill="#1890FF" opacity="0.3" x="220" y="90" width="20" height="20"></rect>
                    <rect id="Rectangle-13" fill="#1890FF" opacity="0.25" x="242" y="90" width="20" height="20"></rect>
                    <rect id="Rectangle-13" fill="#1890FF" opacity="0.25" x="88" y="112" width="20" height="20"></rect>
                    <rect id="Rectangle-13" fill="#1890FF" opacity="0.25" x="110" y="112" width="20" height="20"></rect>
                    <rect id="Rectangle-13" fill="#1890FF" opacity="0.3" x="132" y="112" width="20" height="20"></rect>
                    <rect id="Rectangle-13" fill="#1890FF" opacity="0.3" x="154" y="112" width="20" height="20"></rect>
                    <rect id="Rectangle-13" fill="#1890FF" opacity="0.25" x="176" y="112" width="20" height="20"></rect>
                    <rect id="Rectangle-13" fill="#1890FF" opacity="0.25" x="198" y="112" width="20" height="20"></rect>
                    <g id="Group-7" opacity="0.6" transform="translate(0.000000, 24.000000)" fill="#1890FF">
                        <rect id="Rectangle-13" opacity="0.08" x="0" y="0" width="20" height="20"></rect>
                        <rect id="Rectangle-13" opacity="0.15" x="22" y="0" width="20" height="20"></rect>
                        <rect id="Rectangle-13" opacity="0.1" x="0" y="22" width="20" height="20"></rect>
                        <rect id="Rectangle-13" opacity="0.15" x="22" y="22" width="20" height="20"></rect>
                        <rect id="Rectangle-13" opacity="0.1" x="0" y="44" width="20" height="20"></rect>
                        <rect id="Rectangle-13" opacity="0.2" x="22" y="44" width="20" height="20"></rect>
                        <rect id="Rectangle-13" opacity="0.1" x="0" y="66" width="20" height="20"></rect>
                        <rect id="Rectangle-13" opacity="0.15" x="22" y="66" width="20" height="20"></rect>
                        <rect id="Rectangle-13" opacity="0.08" x="0" y="88" width="20" height="20"></rect>
                        <rect id="Rectangle-13" opacity="0.15" x="22" y="88" width="20" height="20"></rect>
                        <rect id="Rectangle-13" opacity="0.08" x="0" y="110" width="20" height="20"></rect>
                        <rect id="Rectangle-13" opacity="0.1" x="22" y="110" width="20" height="20"></rect>
                    </g>
                    <g id="Group-10" opacity="0.7" transform="translate(44.000000, 112.000000)" fill="#1890FF">
                        <rect id="Rectangle-13" opacity="0.2" x="0" y="0" width="20" height="20"></rect>
                        <rect id="Rectangle-13" opacity="0.2" x="22" y="0" width="20" height="20"></rect>
                        <rect id="Rectangle-13" opacity="0.2" x="176" y="0" width="20" height="20"></rect>
                        <rect id="Rectangle-13" opacity="0.2" x="198" y="0" width="20" height="20"></rect>
                        <rect id="Rectangle-13" opacity="0.1" x="0" y="22" width="20" height="20"></rect>
                        <rect id="Rectangle-13" opacity="0.1" x="22" y="22" width="20" height="20"></rect>
                        <rect id="Rectangle-13" opacity="0.15" x="44" y="22" width="20" height="20"></rect>
                        <rect id="Rectangle-13" opacity="0.15" x="66" y="22" width="20" height="20"></rect>
                        <rect id="Rectangle-13" opacity="0.2" x="88" y="22" width="20" height="20"></rect>
                        <rect id="Rectangle-13" opacity="0.2" x="110" y="22" width="20" height="20"></rect>
                        <rect id="Rectangle-13" opacity="0.15" x="132" y="22" width="20" height="20"></rect>
                        <rect id="Rectangle-13" opacity="0.15" x="154" y="22" width="20" height="20"></rect>
                        <rect id="Rectangle-13" opacity="0.1" x="176" y="22" width="20" height="20"></rect>
                        <rect id="Rectangle-13" opacity="0.1" x="198" y="22" width="20" height="20"></rect>
                    </g>
                    <g id="Group-9" opacity="0.6" transform="translate(264.000000, 24.000000)" fill="#1890FF">
                        <rect id="Rectangle-13" opacity="0.15" x="0" y="0" width="20" height="20"></rect>
                        <rect id="Rectangle-13" opacity="0.15" x="0" y="22" width="20" height="20"></rect>
                        <rect id="Rectangle-13" opacity="0.2" x="0" y="44" width="20" height="20"></rect>
                        <rect id="Rectangle-13" opacity="0.15" x="0" y="66" width="20" height="20"></rect>
                        <rect id="Rectangle-13" opacity="0.1" x="22" y="66" width="20" height="20"></rect>
                        <rect id="Rectangle-13" opacity="0.15" x="0" y="88" width="20" height="20"></rect>
                        <rect id="Rectangle-13" opacity="0.08" x="22" y="88" width="20" height="20"></rect>
                        <rect id="Rectangle-13" opacity="0.1" x="0" y="110" width="20" height="20"></rect>
                        <rect id="Rectangle-13" opacity="0.08" x="22" y="110" width="20" height="20"></rect>
                        <rect id="Rectangle-26" opacity="0.08" x="22" y="0" width="20" height="20"></rect>
                        <rect id="Rectangle-26" opacity="0.1" x="22" y="22" width="20" height="20"></rect>
                        <rect id="Rectangle-26" opacity="0.1" x="22" y="44" width="20" height="20"></rect>
                    </g>
                </g>
            </g>
        </g>
    </g>
</svg>