<?xml version="1.0" encoding="UTF-8" standalone="no"?>
<svg width="27px" height="36px" viewBox="0 0 27 36" version="1.1" xmlns="http://www.w3.org/2000/svg" xmlns:xlink="http://www.w3.org/1999/xlink">
    <!-- Generator: Sketch 48.2 (47327) - http://www.bohemiancoding.com/sketch -->
    <title>Group 3 Copy</title>
    <desc>Created with Sketch.</desc>
    <defs>
        <linearGradient x1="93.2196199%" y1="16.4512089%" x2="-7.17890652%" y2="25.2349418%" id="linearGradient-1">
            <stop stop-color="#FFBA00" offset="0%"></stop>
            <stop stop-color="#FF5A00" offset="56.2958386%"></stop>
            <stop stop-color="#CF4B00" offset="100%"></stop>
        </linearGradient>
        <linearGradient x1="67.2792728%" y1="-14.7080145%" x2="-5.37859823%" y2="92.5580577%" id="linearGradient-2">
            <stop stop-color="#FFF75D" offset="0%"></stop>
            <stop stop-color="#FFBF28" offset="47.5663149%"></stop>
            <stop stop-color="#FF890B" offset="100%"></stop>
        </linearGradient>
        <linearGradient x1="184.947447%" y1="-22.916753%" x2="-39.572684%" y2="136.91669%" id="linearGradient-3">
            <stop stop-color="#FFE94E" offset="0%"></stop>
            <stop stop-color="#FFC400" offset="58.3187181%"></stop>
            <stop stop-color="#F27000" offset="100%"></stop>
        </linearGradient>
        <linearGradient x1="-59.7051328%" y1="166.718493%" x2="112.965677%" y2="-217.473567%" id="linearGradient-4">
            <stop stop-color="#FFDD3A" offset="0%"></stop>
            <stop stop-color="#FFB712" offset="35.2512855%"></stop>
            <stop stop-color="#F37F01" offset="96.9093976%"></stop>
            <stop stop-color="#F27D00" offset="100%"></stop>
        </linearGradient>
    </defs>
    <g id="Artboard" stroke="none" stroke-width="1" fill="none" fill-rule="evenodd" transform="translate(-569.000000, -160.000000)">
        <g id="产品下拉" transform="translate(0.000000, 71.000000)">
            <g id="技术方案下拉" transform="translate(540.000000, 58.000000)">
                <g id="Group-3-Copy" transform="translate(42.000000, 50.000000) scale(-1, 1) translate(-42.000000, -50.000000) translate(23.000000, 29.000000)">
                    <g id="图形" transform="translate(18.645723, 21.256100) rotate(-9.000000) translate(-18.645723, -21.256100) translate(2.645723, 3.256100)">
                        <g id="画板-3-拷贝-30" transform="translate(0.000000, 0.015412)">
                            <path d="M19.6153333,21.1464171 C20.7479178,21.2416539 22.7172853,21.5749062 23.7115481,22.7327007 C25.1570046,24.415899 25.5596265,25.8394063 26.1712819,28.8934985 L26.7697903,34.2010585 C26.7697466,34.2004948 14.9058036,32.22114 14.8594176,31.9219343 C13.047011,31.3123149 10.7421885,30.3573051 9.07217166,28.8914474 C7.81711427,27.7898206 6.92058746,26.399673 6.86104215,24.650776 C4.15386155,22.7482864 4.15369968,21.394178 6.86055655,20.5884508 C7.11367381,20.5131076 7.38147563,20.449181 7.66114749,20.3955406 C7.53206605,19.6431858 7.38225993,18.7499794 7.21172914,17.7159214 C6.95600206,14.8517201 7.73768623,12.0127286 9.38480931,9.82353173 C11.0319324,7.63433487 13.4095612,6.27427265 15.994612,6.04256193 L31.2522157,3.02220499 L30.5118546,10.3340929 C29.9719889,15.1027752 27.433104,18.556443 23.4256924,20.2973773 C21.9721934,20.8706327 20.7607762,21.0766138 19.6153333,21.1464171 Z" id="Combined-Shape" fill="url(#linearGradient-1)"></path>
                            <path d="M14.0390436,4.12167211 C11.4971402,4.61418413 7.37436272,5.95578562 5.46479663,8.08160751 C3.55523054,10.2074294 3.26155158,12.4986331 2.57259619,16.0551907 C2.14222291,22.9874608 2.08384263,26.510865 2.39745535,26.6254032 C5.76091143,21.323226 15.7826134,21.2950527 15.8243718,20.8950301 C20.7698435,20.1787447 23.3664302,17.6123772 24.5189025,11.6630312 L25.6333774,2.20445703 L14.0390436,4.12167211 Z" id="形状_845_拷贝_10-2" fill="url(#linearGradient-2)" transform="translate(13.916268, 14.414930) rotate(-11.000000) translate(-13.916268, -14.414930) "></path>
                            <path d="M12.7565015,21.2686169 C7.38308179,21.139528 6.08442324,22.6780848 4.89541669,24.6112897 C3.70641013,26.5444947 2.07421863,35.6298615 2.76104632,33.7324614 C2.76106897,33.7319271 9.65843608,34.1256275 15.5268132,32.2840743 C19.2547891,30.5952762 19.0459666,29.2617534 20.1166988,25.3810708 C20.8916337,21.6583547 21.2867665,18.9358406 21.3020974,17.2135287 C21.0677911,19.5531972 18.2192591,20.9048933 12.7565015,21.2686169 Z" id="形状_845_拷贝_10-2" fill="url(#linearGradient-3)" transform="translate(11.950079, 25.602496) scale(-1, 1) rotate(-4.000000) translate(-11.950079, -25.602496) "></path>
                        </g>
                    </g>
                    <g id="图形" transform="translate(12.766232, 27.676446) rotate(-9.000000) translate(-12.766232, -27.676446) translate(6.266232, 20.676446)" fill="url(#linearGradient-4)">
                        <g id="画板-3-拷贝-30" transform="translate(0.221631, 0.002125)">
                            <path d="M11.1844225,5.1280293 C8.06666346,6.28065343 3.2835504,8.44767672 1.76127242,12.2841158 C1.69141411,12.2731967 1.60916594,12.1119488 1.51452792,11.8003718 C1.41160235,11.0542225 1.3027437,10.1871217 1.08926293,9.14426323 C0.397112328,4.93225199 0.106502804,1.91547524 0.217434357,0.0939329779 C0.550257349,2.41040493 3.52720888,4.01220646 9.14828896,4.89933756 C9.26208427,4.90457899 9.51085864,4.96759207 9.62117784,4.97396991 C10.1923504,5.00699092 10.7114634,5.05899045 11.1844225,5.1280293 Z" id="Combined-Shape"></path>
                        </g>
                    </g>
                </g>
            </g>
        </g>
    </g>
</svg>