<?xml version="1.0" encoding="UTF-8" standalone="no"?>
<svg width="127px" height="110px" viewBox="0 0 127 110" version="1.1" xmlns="http://www.w3.org/2000/svg" xmlns:xlink="http://www.w3.org/1999/xlink">
    <!-- Generator: Sketch 48 (47235) - http://www.bohemiancoding.com/sketch -->
    <title>体验云 LOGO</title>
    <desc>Created with Sketch.</desc>
    <defs>
        <polygon id="path-1" points="0 35.9943529 126.850728 35.9943529 126.850728 0 0 0"></polygon>
        <linearGradient x1="94.703757%" y1="28.1211052%" x2="-3.67340429%" y2="100%" id="linearGradient-3">
            <stop stop-color="#00EAFF" offset="0%"></stop>
            <stop stop-color="#00AAFF" offset="52.7802136%"></stop>
            <stop stop-color="#1C5FE6" offset="100%"></stop>
        </linearGradient>
        <linearGradient x1="96.7068046%" y1="8.38062678%" x2="-3.2266995%" y2="95.8568468%" id="linearGradient-4">
            <stop stop-color="#00D4FF" offset="0%"></stop>
            <stop stop-color="#0096FF" offset="43.6752069%"></stop>
            <stop stop-color="#003DF2" offset="100%"></stop>
        </linearGradient>
        <linearGradient x1="95.5911963%" y1="17.9058014%" x2="-19.3232777%" y2="115.899303%" id="linearGradient-5">
            <stop stop-color="#02F68F" offset="0%"></stop>
            <stop stop-color="#00F7BC" offset="37.3619555%"></stop>
            <stop stop-color="#0099FF" offset="100%"></stop>
        </linearGradient>
    </defs>
    <g id="门户" stroke="none" stroke-width="1" fill="none" fill-rule="evenodd" transform="translate(-656.000000, -90.000000)">
        <g id="体验云-LOGO" transform="translate(656.000000, 90.000000)">
            <g id="文字" transform="translate(0.000000, 74.000000)">
                <path d="M17.3922946,23.3606118 C16.7686677,23.3606118 16.0869905,23.2904941 15.3659812,23.1519059 C14.6454457,23.0140235 13.8884215,22.7787294 13.1159961,22.4528471 C12.6750502,22.2799059 12.3928543,22.0848471 12.2739103,21.8712 C12.159942,21.6660235 12.1845838,21.4142588 12.3499681,21.1013176 C12.4968711,20.8392 12.6759979,20.6836706 12.8814252,20.6415529 C12.925733,20.6323765 12.9743058,20.6279059 13.0259588,20.6279059 C13.2266472,20.6279059 13.4858599,20.6966118 13.7964886,20.8323765 C15.2885017,21.4483765 16.5141938,21.7603765 17.4420521,21.7603765 C18.0410371,21.7603765 18.5587517,21.6561412 18.9812162,21.4504941 C19.4039177,21.2450824 19.7510353,20.9573176 20.0121435,20.5949647 C20.168761,20.3700235 20.3085558,20.0714353 20.4282106,19.7067294 C20.545733,19.3464941 20.6480912,18.8853176 20.7326789,18.3359059 C20.815845,17.7883765 20.8833729,17.1173176 20.9336043,16.3408471 C20.9831248,15.5681412 21.0167703,14.6479059 21.0335931,13.6055529 C21.0508897,13.1521412 21.018192,12.8490824 20.9333674,12.6820235 C20.8674979,12.5509647 20.7194103,12.3942588 20.3903002,12.3942588 L12.6698375,12.3942588 C12.1324569,12.3942588 11.6832181,12.3533176 11.3351528,12.2728471 C11.0027256,12.1968471 10.7501472,12.0669647 10.5838151,11.8864941 C10.4148767,11.7036706 10.3099121,11.4721412 10.2637088,11.1782588 C10.2153729,10.8754353 10.2158468,10.4848471 10.2644196,10.0175529 L10.9385147,4.63567059 C10.9688431,4.33237647 11.0617237,4.10696471 11.2147871,3.9632 C11.3683244,3.81731765 11.5581136,3.74696471 11.7952909,3.74696471 C12.1367218,3.74696471 12.3606304,3.81778824 12.4608562,3.95755294 C12.568664,4.1072 12.6075222,4.36061176 12.57672,4.71072941 L11.9275035,10.2648471 C11.9170782,10.4166118 11.9530931,10.5344941 12.0343636,10.6206118 C12.1267703,10.7187294 12.2734364,10.7686118 12.4698599,10.7686118 L18.6016379,10.7686118 L19.1345166,3.66202353 C19.144942,3.54672941 19.1174569,3.45190588 19.0525353,3.38131765 C18.9802685,3.30272941 18.8672479,3.26296471 18.716317,3.26296471 L9.92156698,3.26296471 C9.57516026,3.26296471 9.34438041,3.20108235 9.23562481,3.07943529 C9.12284123,2.95378824 9.06550168,2.73802353 9.06550168,2.43802353 C9.06550168,2.18508235 9.12923862,1.99167059 9.26002966,1.84696471 C9.37376101,1.72155294 9.55312481,1.66037647 9.8087834,1.66037647 C9.83532071,1.66037647 9.86280578,1.66108235 9.89100168,1.66249412 L18.8914159,1.66272941 C19.2951621,1.66272941 19.6391994,1.69496471 19.9135763,1.75872941 C20.1730259,1.81967059 20.3689756,1.93261176 20.5116136,2.10367059 C20.6540147,2.27543529 20.7461845,2.51802353 20.7852797,2.82484706 C20.8255595,3.14743529 20.8293506,3.56578824 20.7968897,4.06814118 L20.2623524,10.7641412 L20.3860353,10.7686118 C20.8229532,10.7843765 21.1999252,10.8368471 21.5067629,10.9250824 C21.7984364,11.0088471 22.0313487,11.1507294 22.1991024,11.3472 C22.3689886,11.5469647 22.4950409,11.8182588 22.573942,12.1540235 C22.6545017,12.4996706 22.6952554,12.9370824 22.6952554,13.4542588 C22.6952554,14.5728471 22.6701397,15.5808471 22.6208562,16.4497882 C22.5715726,17.3163765 22.4919606,18.0928471 22.3846267,18.7577882 C22.2777666,19.4184941 22.1365502,19.9961412 21.9652424,20.4742588 C21.7941715,20.9516706 21.5920614,21.3735529 21.3650726,21.7281412 C21.0146379,22.2335529 20.4938431,22.6370824 19.8192741,22.9236706 C19.1383076,23.2135529 18.3218114,23.3606118 17.3922946,23.3606118 Z" id="Fill-1" fill="#FFFFFF"></path>
                <path d="M10.0213425,17.5550118 C9.69507575,17.5550118 9.4702194,17.4992471 9.37094142,17.3933647 C9.29985933,17.3185412 9.21574552,17.1434824 9.21574552,16.7300706 C9.21574552,16.2983059 9.29867463,16.1253647 9.36809813,16.0561882 C9.43799552,15.9870118 9.60788172,15.9044235 10.0213425,15.9044235 L18.6914619,15.9044235 C19.0099097,15.9044235 19.2314489,15.9571294 19.349919,16.0611294 C19.4285832,16.1303059 19.5226485,16.3027765 19.5226485,16.7300706 C19.5226485,17.0554824 19.4655459,17.2839529 19.3575011,17.3903059 C19.2819172,17.4656 19.1008948,17.5550118 18.6663463,17.5550118 L10.0213425,17.5550118 Z" id="Fill-3" fill="#FFFFFF"></path>
                <path d="M42.4314819,9.56557647 C41.9623401,9.56557647 41.6818028,9.20887059 41.5742319,8.47522353 C41.5090733,7.94181176 41.4292244,7.3684 41.3370547,6.77475294 C41.2439371,6.18063529 41.1427636,5.58698824 41.0363774,5.00981176 C40.9283326,4.42345882 40.8103364,3.85451765 40.6859427,3.31734118 C40.5601274,2.77734118 40.4290994,2.27828235 40.2964129,1.83404706 C40.1639632,1.38628235 40.1642002,1.05357647 40.2973606,0.845576471 C40.3923737,0.697105882 40.5570472,0.606752941 40.8003849,0.569576471 C40.8965826,0.546047059 40.9769054,0.535223529 41.0496461,0.535223529 C41.2226125,0.535223529 41.3598009,0.594752941 41.4683196,0.717341176 C41.6403382,0.911929412 41.7836871,1.17781176 41.8943382,1.50769412 C42.0407674,2.0244 42.1831685,2.59828235 42.3156181,3.20745882 C42.4497263,3.82298824 42.5755416,4.44369412 42.6897468,5.0524 C42.8039521,5.65922353 42.9046517,6.25898824 42.9892394,6.83498824 C43.0714576,7.40087059 43.1385118,7.91287059 43.1885062,8.35663529 C43.2496368,8.82863529 43.2110155,9.16204706 43.0773812,9.32298824 C42.9411405,9.48604706 42.7300267,9.56557647 42.4314819,9.56557647" id="Fill-5" fill="#FFFFFF"></path>
                <path d="M35.9364507,23.7535529 C35.907544,23.7535529 35.8802959,23.7516706 35.8547063,23.7476706 C35.6364843,23.7114353 35.4580683,23.5857882 35.3097437,23.3639059 C35.1396205,23.0815529 35.1121354,22.8264941 35.2287101,22.5886118 L36.4811765,21.6624941 C37.4550011,21.0890824 38.3570328,20.4203765 39.1519675,19.6815529 C39.9414526,18.9472 40.6645944,18.1622588 41.3007791,17.3479059 L41.3536168,17.2801412 L41.305044,17.2095529 C40.5932754,16.1735529 39.9611187,15.1215529 39.4263444,14.0829647 C38.8887269,13.0408471 38.4115291,11.9641412 38.0077828,10.8829647 C37.6042735,9.80414118 37.2441243,8.66837647 36.9368127,7.5072 C36.6323444,6.35496471 36.3510963,5.10955294 36.1015981,3.80531765 C36.0700851,3.63496471 36.0418892,3.44272941 36.0153519,3.21849412 C35.9918948,3.01637647 35.9999507,2.82508235 36.038809,2.64978824 C36.0750608,2.48249412 36.1485123,2.34343529 36.2565571,2.23614118 C36.3430403,2.15002353 36.4818873,2.10649412 36.669781,2.10649412 C36.6965552,2.10649412 36.7242772,2.10743529 36.7527101,2.10908235 C36.8046,2.10484706 36.8346914,2.10296471 36.864072,2.10296471 C37.0600216,2.10296471 37.2149806,2.18649412 37.3381896,2.35778824 C37.4936224,2.57402353 37.6213332,2.94225882 37.7182418,3.45214118 C38.1167754,5.86155294 38.7114955,8.11896471 39.4851056,10.1584941 C40.2587157,12.1994353 41.182309,14.0970824 42.2305328,15.7984941 L42.3302847,15.9603765 L42.4319321,15.7999059 C43.4813407,14.1464941 44.3599153,12.1413176 45.0439619,9.84084706 C45.7258761,7.5432 46.2483295,4.99072941 46.5966317,2.25402353 C46.6286187,1.94014118 46.706809,1.68649412 46.8290701,1.49684706 C46.9397213,1.32437647 47.1439638,1.24061176 47.4536448,1.24061176 C47.770434,1.24061176 48.0078481,1.31331765 48.159253,1.45661176 C48.2580571,1.55049412 48.3561504,1.78955294 48.2613743,2.39496471 C47.8301429,5.42249412 47.2219172,8.23825882 46.4532828,10.7655529 C45.6855963,13.2895529 44.6530104,15.4909647 43.3839582,17.3076706 L43.333253,17.3803765 L43.3894078,17.4490824 C44.0414675,18.2460235 44.8195795,19.0356706 45.7021821,19.7963765 C46.5836,20.5559059 47.4631224,21.2024941 48.3168183,21.7180235 C48.7888034,21.9714353 49.0648388,22.2352 49.1420813,22.5053176 C49.1913649,22.6784941 49.1615104,22.8559059 49.0501485,23.0479059 C48.8738649,23.3801412 48.6442698,23.5399059 48.3461989,23.5399059 C48.1251336,23.5399059 47.8618929,23.4516706 47.5633481,23.2777882 C47.0814116,23.0135529 46.6226951,22.7319059 46.1971504,22.4389647 C45.7654451,22.1420235 45.3403743,21.8112 44.9335478,21.4554353 C44.5224563,21.0956706 44.1047306,20.6930824 43.6919806,20.2592 C43.2808892,19.8267294 42.8548705,19.3246118 42.4260086,18.7672 L42.3364451,18.6507294 L42.2411951,18.7627294 C41.4339396,19.7116706 40.5845086,20.5841412 39.7168332,21.3563765 C38.8536597,22.1234353 37.9139545,22.8121412 36.923781,23.4027294 C36.4968146,23.6347294 36.1634396,23.7535529 35.9364507,23.7535529" id="Fill-7" fill="#FFFFFF"></path>
                <path d="M66.1463388,23.5839765 C65.8485049,23.5839765 65.6336,23.4971529 65.4897772,23.3183294 C65.3407418,23.1336235 65.2651578,22.8788 65.2651578,22.5609176 L65.2651578,19.0936235 L60.3998257,19.0936235 C59.7307063,19.0936235 59.4191299,18.8392706 59.4191299,18.2931529 C59.4191299,17.7303294 59.7307063,17.4682118 60.3998257,17.4682118 L65.2651578,17.4682118 L65.2651578,8.26891765 L65.0379321,8.22209412 C64.2309134,10.0719765 63.272016,11.8230353 62.1877772,13.4265647 C61.1016429,15.0310353 59.839225,16.6762118 58.4358276,18.3157412 C57.9882474,18.8176235 57.724059,18.9348 57.581184,18.9442118 C57.5667306,18.9453882 57.5525142,18.9458588 57.5382978,18.9458588 C57.3376093,18.9458588 57.1061187,18.8451529 56.8497493,18.6468 C56.7052157,18.5023294 56.6547474,18.3018588 56.7059265,18.0430353 C56.7599489,17.7658588 56.9234377,17.4665647 57.191891,17.1531529 C57.8925235,16.3576235 58.5832045,15.5298588 59.243794,14.6936235 C59.9088854,13.8508 60.5500459,12.9503294 61.1492679,12.0169176 C61.7463575,11.0863294 62.315725,10.0936235 62.8414955,9.0668 C63.3660813,8.04209412 63.859628,6.92797647 64.3083929,5.75503529 L64.3692866,5.59550588 L59.3006597,5.59550588 C58.6313034,5.59550588 58.3194899,5.33338824 58.3194899,4.77056471 C58.3194899,4.20727059 58.6313034,3.94491765 59.3006597,3.94491765 L65.2651578,3.94491765 L65.2651578,1.02397647 C65.2651578,0.325388235 65.5293463,0.000211764706 66.0963444,0.000211764706 C66.3922828,0.000211764706 66.594156,0.0778588235 66.7133369,0.237858824 C66.8389153,0.406329412 66.9024153,0.6708 66.9024153,1.02397647 L66.9024153,3.94491765 L73.2924582,3.94491765 C73.5959787,3.94491765 73.8405011,4.01574118 74.0186802,4.15550588 C74.1897511,4.29032941 74.2731541,4.49150588 74.2731541,4.77056471 C74.2731541,5.04962353 74.1897511,5.2508 74.0186802,5.38491765 C73.8414489,5.52468235 73.5971634,5.59550588 73.2924582,5.59550588 L67.6494881,5.59550588 L67.7099078,5.7548 C68.0911448,6.75974118 68.5128985,7.73574118 68.963322,8.65527059 C69.4123239,9.57221176 69.9269582,10.4940941 70.4932455,11.3955059 C71.0552679,12.2912706 71.6964284,13.2126824 72.3984825,14.1338588 C73.1021951,15.0571529 73.9025795,16.0317412 74.7773631,17.0305647 C75.0417884,17.3244471 75.1830049,17.6131529 75.1979321,17.8898588 C75.2126224,18.1620941 75.1102642,18.3957412 74.8856448,18.6039765 C74.7119675,18.7646824 74.5375795,18.8428 74.3522922,18.8428 C74.3004022,18.8428 74.2470907,18.8362118 74.1935422,18.8239765 C73.9412007,18.7646824 73.6627959,18.5136235 73.3656728,18.0785647 C71.9018556,16.3270353 70.6439396,14.6279765 69.6196466,13.0195059 C68.5960646,11.4131529 67.7587175,9.81668235 67.1308257,8.27432941 L66.9024153,8.31832941 L66.9024153,17.4682118 L71.543128,17.4682118 C71.8492549,17.4682118 72.0944881,17.5352706 72.2717194,17.6675059 C72.4416056,17.7943294 72.5242978,17.9988 72.5242978,18.2931529 C72.5242978,18.5402118 72.440184,18.7296235 72.2672175,18.8722118 C72.0897493,19.0192706 71.8464116,19.0936235 71.543128,19.0936235 L66.9024153,19.0936235 L66.9024153,22.5609176 C66.9024153,22.8846824 66.8450757,23.1439765 66.7318183,23.3312706 C66.6289862,23.5011529 66.4375384,23.5839765 66.1463388,23.5839765" id="Fill-9" fill="#FFFFFF"></path>
                <path d="M55.2026588,23.6090118 C54.9507912,23.6090118 54.7541308,23.5318353 54.6013043,23.3725412 C54.4491886,23.2134824 54.3719461,22.9652471 54.3719461,22.6346588 L54.3719461,11.2360706 L54.1513547,11.6085412 C53.9845487,11.8901882 53.8220076,12.1628941 53.6644424,12.4264235 C53.5061662,12.6913647 53.3445729,12.9551294 53.1787147,13.2179529 C52.9453285,13.5887765 52.7064927,13.8144235 52.4688416,13.8883059 C52.3975226,13.9106588 52.324545,13.9219529 52.2520412,13.9219529 C52.0890263,13.9219529 51.9184293,13.8650118 51.7445151,13.7525412 C51.5303211,13.5963059 51.423461,13.3843059 51.423461,13.1076 C51.423461,12.8188941 51.5341121,12.5158353 51.7518603,12.2076 C52.7019909,10.8988941 53.5765375,9.2796 54.3503845,7.39512941 C55.1242315,5.51112941 55.7945356,3.44383529 56.3421047,1.25042353 C56.4965897,0.635835294 56.7977409,0.337247059 57.2626177,0.337247059 C57.3521812,0.337247059 57.4493267,0.348305882 57.5514479,0.370188235 C57.8255879,0.427129412 57.9926308,0.563364706 58.0630021,0.786423529 C58.1388229,1.02807059 58.1300562,1.32289412 58.0367017,1.66265882 C57.4742054,3.74901176 56.8031905,5.76477647 56.0421382,7.65442353 L56.0338453,7.67536471 L56.0338453,22.6346588 C56.0338453,22.9419529 55.9769797,23.1880706 55.86467,23.3666588 C55.7632595,23.5273647 55.5405356,23.6090118 55.2026588,23.6090118" id="Fill-11" fill="#FFFFFF"></path>
                <path d="M86.1636239,22.7898588 C85.8683963,22.7898588 85.659178,22.7204471 85.5418925,22.5837412 C85.4198683,22.4409176 85.3580269,22.2411529 85.3580269,21.9903294 C85.3580269,21.7385647 85.4196313,21.5390353 85.5418925,21.3966824 C85.659178,21.2592706 85.8683963,21.1896235 86.1636239,21.1896235 L95.0934299,21.1896235 L95.1209149,21.1098588 C95.3888944,20.3268 95.6457377,19.5068 95.8843366,18.6726824 C96.1241201,17.8357412 96.3515828,16.9785647 96.5608011,16.1251529 C96.7667022,15.2813882 96.9562545,14.4197412 97.1240082,13.5642118 C97.2898664,12.7148 97.4412713,11.8830353 97.5739578,11.0915059 C97.6538067,10.6333882 97.7642209,10.3079765 97.9018832,10.1256235 C97.9992657,9.99715294 98.1594373,9.93456471 98.3914019,9.93456471 C98.4537172,9.93456471 98.5202974,9.93927059 98.5913795,9.94844706 C98.9275978,9.99268235 99.1358683,10.1025647 99.2097937,10.2750353 C99.2659485,10.4077412 99.3083608,10.7110353 99.1894168,11.3997412 C98.9242806,12.9291529 98.5885362,14.5336235 98.1914243,16.1686824 C97.7950231,17.8011529 97.3251705,19.4385647 96.7948981,21.0352706 L96.7434821,21.1896235 L100.380753,21.1896235 C100.675743,21.1896235 100.884962,21.2592706 101.002721,21.3966824 C101.124745,21.5392706 101.18635,21.7388 101.18635,21.9903294 C101.18635,22.2406824 101.124508,22.4406824 101.002484,22.5842118 C100.884962,22.7204471 100.675506,22.7898588 100.380753,22.7898588 L86.1636239,22.7898588 Z" id="Fill-13" fill="#FFFFFF"></path>
                <path d="M87.937667,9.02009412 C87.3197267,9.02009412 87.0318442,8.77327059 87.0318442,8.24362353 C87.0318442,8.10950588 87.0436912,8.05444706 87.0507994,8.03374118 L87.1616875,7.7048 L86.5738386,8.09562353 C86.2376203,8.32832941 85.9487901,8.44527059 85.7125606,8.44527059 C85.4540588,8.44503529 85.2514748,8.30409412 85.0934356,8.01421176 C84.9593274,7.76221176 84.9289991,7.54174118 85.0010289,7.34056471 C85.0514972,7.20032941 85.2310979,6.95891765 85.8014132,6.60715294 C86.8690662,5.92809412 87.8843554,5.11750588 88.8207435,4.19632941 C89.7500233,3.28197647 90.7027603,2.24009412 91.65218,1.09891765 C91.8888834,0.8008 92.1319841,0.604564706 92.3767435,0.513976471 C92.6283741,0.420094118 92.8579692,0.3728 93.0596054,0.3728 C93.311236,0.3728 93.5649991,0.424094118 93.8142603,0.525035294 C94.0616259,0.624329412 94.2817435,0.7848 94.4689263,1.00150588 C95.41882,2.10974118 96.3888535,3.11891765 97.3517789,4.00103529 C98.3173106,4.88550588 99.3638759,5.71915294 100.462568,6.47938824 C100.870342,6.76009412 101.106809,7.01327059 101.16557,7.23232941 C101.222436,7.44527059 101.169361,7.67138824 101.007531,7.90409412 C100.843568,8.17538824 100.668232,8.30432941 100.467781,8.30432941 C100.447878,8.30432941 100.427738,8.30315294 100.407361,8.30056471 C100.156441,8.27091765 99.8370457,8.09632941 99.4572304,7.78150588 C98.315889,6.89491765 97.2340196,5.97891765 96.2388703,5.05656471 C95.2446688,4.13468235 94.3646726,3.24409412 93.6235233,2.40974118 C93.43018,2.19915294 93.2626632,2.09727059 93.1098368,2.09727059 C92.95393,2.09727059 92.7852285,2.2088 92.5940177,2.43774118 C91.8201707,3.38621176 91.053195,4.24715294 90.3141782,4.99797647 C89.5813218,5.74291765 88.7323647,6.48644706 87.7905271,7.20809412 L87.5154394,7.41868235 L97.7069524,7.41868235 C98.2910103,7.41868235 98.5630177,7.68103529 98.5630177,8.24362353 C98.5630177,8.77327059 98.2910103,9.02009412 97.7069524,9.02009412 L87.937667,9.02009412 Z" id="Fill-15" fill="#FFFFFF"></path>
                <path d="M77.9843263,18.6285412 C77.9002125,18.6285412 77.8246285,18.6163059 77.7599438,18.5923059 C77.5997722,18.5325412 77.4817759,18.3553647 77.4087983,18.0654824 C77.2585782,17.5285412 77.4876994,17.1883059 78.1281491,16.9911294 C78.5657778,16.8518353 78.9467778,16.7259529 79.2946062,16.6052471 C79.6618636,16.4777176 80.0044793,16.3476 80.3132125,16.2184235 C80.6224196,16.0890118 80.9356547,15.9459529 81.2446248,15.7930118 C81.5372461,15.6478353 81.8580632,15.4803059 82.1980726,15.2948941 C82.4511248,15.1567765 82.6700576,15.0866588 82.8494215,15.0866588 C82.8866211,15.0866588 82.922636,15.0897176 82.9569924,15.0958353 C83.1422797,15.1306588 83.2898935,15.2748941 83.4071789,15.5365412 C83.5111957,15.7586588 83.5346528,15.9643059 83.4775502,16.1492471 C83.4199737,16.3332471 83.2370558,16.5106588 82.9337722,16.6767765 C82.5835744,16.8748941 82.2376416,17.0527765 81.9040297,17.2057176 C81.5623618,17.3636 81.2145334,17.5174824 80.8702591,17.6633647 C80.5259849,17.8108941 80.1539886,17.9560706 79.7649326,18.0948941 C79.39033,18.2301882 78.9707088,18.3718353 78.4819009,18.5285412 C78.2904532,18.5951294 78.1238841,18.6285412 77.9843263,18.6285412" id="Fill-17" fill="#FFFFFF"></path>
                <path d="M82.6160116,23.1131529 C82.3269444,23.1131529 81.9653735,23.0679765 81.5410134,22.9788 C81.1187858,22.8903294 80.6359015,22.7538588 80.1056291,22.5731529 C79.7547205,22.4517412 79.5329444,22.3082118 79.447409,22.1463294 C79.3616366,21.9823294 79.3566608,21.7298588 79.4329556,21.3962118 C79.5400526,21.0352706 79.7341067,20.8637412 80.042366,20.8637412 C80.1558604,20.8637412 80.2861776,20.8879765 80.4295265,20.9352706 C80.8576776,21.0658588 81.2507616,21.1752706 81.6004854,21.2609176 C81.9506832,21.3449176 82.2501757,21.3877412 82.4909071,21.3877412 C82.8465545,21.3877412 83.1017392,21.2837412 83.2495899,21.0785647 C83.3851198,20.8889176 83.4936384,20.6030353 83.5810694,20.2039765 C83.650256,19.7722118 83.717784,19.2780941 83.7829425,18.7289176 C83.8511813,18.1486824 83.9101795,17.5503294 83.9582784,16.9503294 C84.0082728,16.3312706 84.0461832,15.6908 84.0712989,15.0468 C84.0957037,14.4117412 84.1082616,13.7926824 84.1082616,13.2065647 C84.1082616,13.0011529 84.0677448,12.8703294 83.9807877,12.7948 C83.8971478,12.7244471 83.757353,12.6919765 83.5400787,12.6919765 L80.1172392,12.6919765 C79.6988026,12.6919765 79.3668493,12.6522118 79.1303828,12.5738588 C78.9041049,12.4990353 78.740616,12.3804471 78.6302019,12.2117412 C78.5167075,12.0395059 78.447284,11.8035059 78.4240638,11.5103294 C78.399659,11.2039765 78.4122168,10.8272706 78.4612634,10.3912706 L78.9609705,4.53197647 C78.9920097,4.16068235 79.0716216,3.89409412 79.1974369,3.73997647 C79.2936347,3.62232941 79.4459873,3.56515294 79.6639724,3.56515294 C79.7087541,3.56515294 79.7561422,3.56774118 79.8058996,3.57244706 C80.1004164,3.60209412 80.2982616,3.68891765 80.3935116,3.83127059 C80.4942112,3.98068235 80.5295153,4.2348 80.49895,4.5868 L79.9743642,10.6157412 C79.9535134,10.7795059 79.9786291,10.9025647 80.0520806,10.9877412 C80.1279015,11.0755059 80.2676963,11.1162118 80.4920787,11.1162118 L82.646103,11.1162118 L83.5580862,3.49432941 C83.5881776,3.29691765 83.5552429,3.13927059 83.4602299,3.02985882 C83.3659276,2.92138824 83.2164183,2.86609412 83.0157299,2.86609412 L78.692991,2.86609412 C78.3442149,2.86609412 78.1032466,2.8028 77.9771944,2.67715294 C77.8511422,2.55197647 77.7871683,2.33809412 77.7871683,2.04115294 C77.7871683,1.76138824 77.8513791,1.55550588 77.9774313,1.42915294 C78.1037205,1.30421176 78.3446888,1.24068235 78.692991,1.24068235 L83.1652392,1.24068235 C83.5675638,1.24068235 83.9106534,1.27691765 84.1850302,1.34821176 C84.4451907,1.41715294 84.6454052,1.54209412 84.797047,1.73032941 C84.9486888,1.91903529 85.0453604,2.18256471 85.0842187,2.51385882 C85.1244985,2.85997647 85.1117037,3.31409412 85.0467821,3.86374118 L84.1570713,11.1319765 L84.2819388,11.1402118 C85.2308847,11.2023294 85.6770433,11.8122118 85.6455302,13.0046824 C85.6289444,13.5788 85.6035918,14.2213882 85.570894,14.9133882 C85.5363007,15.6232706 85.4943623,16.3148 85.4457896,16.9691529 C85.396269,17.6432706 85.3375078,18.2886824 85.2714015,18.8877412 C85.2048213,19.4912706 85.1467709,19.9997412 85.0970134,20.4124471 C84.951769,21.4211529 84.6771552,22.1333882 84.2807541,22.5272706 C83.8890918,22.9159765 83.3289649,23.1131529 82.6160116,23.1131529" id="Fill-19" fill="#FFFFFF"></path>
                <path d="M93.6119843,20.0683529 C93.3717269,20.0683529 93.2008929,20.0029412 93.0890571,19.8683529 C92.9480776,19.6987059 92.8687026,19.4010588 92.8535384,18.9836471 C92.8040179,17.6521176 92.6945515,16.2758824 92.5277455,14.8923529 C92.3609396,13.5114118 92.1502996,12.2262353 91.9015123,11.0730588 C91.8069731,10.618 91.8008127,10.2768235 91.8842157,10.0598824 C91.9602735,9.85894118 92.1401112,9.73282353 92.4334433,9.67423529 C92.5365123,9.65658824 92.6343687,9.64741176 92.7206149,9.64741176 C92.9101672,9.64741176 93.0506728,9.69164706 93.1385776,9.77917647 C93.279794,9.91941176 93.3994489,10.2125882 93.4935142,10.6504706 C93.7091299,11.6730588 93.9062642,12.9177647 94.0794675,14.3495294 C94.2538556,15.7982353 94.3924657,17.2944706 94.4907959,18.7965882 C94.522309,19.2683529 94.4891373,19.5975294 94.3924657,19.7756471 C94.3047978,19.9358824 94.0884713,20.0323529 93.7491728,20.0617647 C93.7010739,20.066 93.6558183,20.0683529 93.6119843,20.0683529" id="Fill-21" fill="#FFFFFF"></path>
                <path d="M89.5564668,20.5398588 C89.3171571,20.5398588 89.1434799,20.4768 89.0250097,20.3476235 C88.8773959,20.1864471 88.7866478,19.8930353 88.7553716,19.4753882 C88.706325,18.8248 88.634769,18.1337412 88.5425993,17.4219765 C88.4525619,16.7295059 88.3513884,16.0271529 88.241922,15.3346824 C88.1329295,14.6443294 88.0151701,13.9666824 87.8919612,13.3208 C87.7666198,12.6671529 87.6272989,12.0429176 87.4780265,11.4650353 C87.3510265,11.0085647 87.3252,10.6688 87.4000731,10.4535059 C87.4699705,10.2523294 87.6469649,10.1189176 87.9417187,10.0457412 C88.0616104,10.0198588 88.1736832,10.0062118 88.2710657,10.0062118 C88.4428474,10.0062118 88.5686627,10.0462118 88.6556198,10.1285647 C88.805366,10.2695059 88.9371049,10.5551529 89.0472821,10.9782118 C89.1792578,11.4697412 89.313366,12.0433882 89.4455787,12.6838588 C89.5768437,13.3193882 89.702659,14.0062118 89.8197075,14.7262118 C89.9353343,15.4398588 90.0445638,16.1857412 90.1440787,16.9433882 C90.242172,17.6892706 90.3258119,18.4556235 90.3933399,19.2215059 C90.424853,19.6928 90.3987896,20.0290353 90.3153866,20.2184471 C90.2419351,20.3836235 90.0336646,20.4895059 89.6967354,20.5330353 C89.6505321,20.5372706 89.6024332,20.5398588 89.5564668,20.5398588" id="Fill-23" fill="#FFFFFF"></path>
                <path d="M109.358563,22.7845647 C108.363413,22.7845647 107.452615,22.2436235 106.981815,21.3728 C106.511251,20.5029176 106.560298,19.4504471 107.109999,18.6262118 L112.095223,11.1535059 L104.332348,11.1535059 C103.982624,11.1535059 103.740708,11.0932706 103.613945,10.9749176 C103.489551,10.8584471 103.426525,10.6492706 103.426525,10.3530353 C103.426525,10.0558588 103.490262,9.84174118 103.616551,9.7168 C103.743078,9.59185882 103.983809,9.52809412 104.332348,9.52809412 L125.944857,9.52809412 C126.293397,9.52809412 126.534128,9.59162353 126.660654,9.71703529 C126.786943,9.84174118 126.85068,10.0556235 126.85068,10.3530353 C126.85068,10.6492706 126.787654,10.8584471 126.663024,10.9749176 C126.536497,11.0932706 126.294581,11.1535059 125.944857,11.1535059 L114.030788,11.1535059 L113.987665,11.2229176 L113.983637,11.2356235 L108.459848,19.5151529 C108.138083,19.9972706 108.316973,20.4429176 108.408906,20.6120941 C108.500365,20.7812706 108.775926,21.1760941 109.358563,21.1760941 L121.108195,21.1760941 C121.661688,21.1760941 121.940803,20.8090353 122.035343,20.6516235 C122.129645,20.4944471 122.320382,20.0763294 122.053113,19.5923294 L118.940902,13.9452706 C118.726945,13.5558588 118.871242,13.0659765 119.263141,12.8535059 C119.382796,12.7880941 119.516904,12.7532706 119.651723,12.7532706 C119.947662,12.7532706 120.219906,12.9139765 120.362307,13.1720941 L123.474281,18.8193882 C123.935841,19.6577412 123.918781,20.6495059 123.428315,21.4720941 C122.937848,22.2939765 122.070173,22.7845647 121.108195,22.7845647 L109.358563,22.7845647 Z" id="Fill-25" fill="#FFFFFF"></path>
                <path d="M106.306321,3.93277647 C105.973657,3.93277647 105.740982,3.86924706 105.61564,3.74430588 C105.489114,3.61889412 105.42514,3.40501176 105.42514,3.10783529 C105.42514,2.81018824 105.490062,2.59112941 105.617773,2.45701176 C105.744062,2.32501176 105.975553,2.25795294 106.306321,2.25795294 L124.071157,2.25795294 C124.401452,2.25795294 124.63318,2.32477647 124.759469,2.45701176 C124.88718,2.59136471 124.951864,2.81018824 124.951864,3.10783529 C124.951864,3.40477647 124.88789,3.61889412 124.761601,3.74407059 C124.635786,3.86924706 124.403821,3.93277647 124.071157,3.93277647 L106.306321,3.93277647 Z" id="Fill-27" fill="#FFFFFF"></path>
                <path d="M3.02963713,28.9153176 C2.75502332,29.8830824 2.50220802,30.7204941 2.2339916,31.5508471 L1.79115019,32.8981412 L4.53183862,32.8981412 L4.10297668,31.5513176 C3.8361819,30.7249647 3.58312966,29.8877882 3.30662034,28.9153176 L3.28245243,28.8296706 L3.05404198,28.8296706 L3.02963713,28.9153176 Z M5.48694496,35.8515529 L4.71451959,33.4630824 L1.61060168,33.4630824 L0.837702425,35.8515529 L0.0477434701,35.8515529 L2.68868004,28.2529647 L3.6726931,28.2529647 L6.31362966,35.8515529 L5.48694496,35.8515529 Z" id="Fill-29" fill="#FFFFFF"></path>
                <path d="M12.289264,35.8514353 L9.41683675,30.9770824 L8.5145681,29.3067294 L8.26862407,29.3067294 L8.2764431,29.4314353 C8.28757929,29.6109647 8.29990019,29.7928471 8.31245802,29.9763765 C8.35487034,30.5980235 8.39870429,31.2403765 8.39870429,31.8730824 L8.39870429,35.8514353 L7.66679571,35.8514353 L7.66679571,28.2528471 L8.53541884,28.2528471 L11.41993,33.1147294 L12.3217248,34.7966118 L12.5679058,34.7966118 L12.5600868,34.6714353 C12.5468181,34.4599059 12.53118,34.2410824 12.5150681,34.0184941 C12.4709972,33.4104941 12.4252677,32.7820235 12.4252677,32.1834353 L12.4252677,28.2528471 L13.1574132,28.2528471 L13.1574132,35.8514353 L12.289264,35.8514353 Z" id="Fill-31" fill="#FFFFFF"></path>
                <polygon id="Fill-33" fill="#FFFFFF" points="17.2232614 35.8514353 17.2232614 28.8530824 14.7825394 28.8530824 14.7825394 28.2528471 20.4449386 28.2528471 20.4449386 28.8530824 18.0042166 28.8530824 18.0042166 35.8514353"></polygon>
                <polygon id="Fill-35" fill="#FFFFFF" points="24.5345045 35.8514353 24.5345045 28.2528471 28.933775 28.2528471 28.933775 28.8530824 25.3280175 28.8530824 25.3280175 31.5486118 28.3698571 31.5486118 28.3698571 32.1610824 25.3280175 32.1610824 25.3280175 35.2387294 29.0560362 35.2387294 29.0560362 35.8514353"></polygon>
                <path d="M34.7775521,35.8514353 L33.6217573,33.7977882 C33.5378804,33.6441412 33.4513972,33.4872 33.3611229,33.3236706 C33.2291472,33.0836706 33.0891155,32.8295529 32.9358151,32.5455529 L32.9021696,32.4836706 L32.7081155,32.4836706 L32.6756547,32.5500235 C32.4429793,33.0272 32.245845,33.4224941 32.0406547,33.7992 L30.9090278,35.8514353 L30.1171733,35.8514353 L32.3913263,31.9206118 L30.2643132,28.2528471 L31.1177722,28.2528471 L32.1877946,30.1975529 L32.3339868,30.4660235 C32.4768618,30.7286118 32.6216323,30.9947294 32.8140278,31.3337882 L32.8479103,31.3937882 L33.0405427,31.3937882 L33.2319905,30.9980235 C33.3708375,30.7093176 33.4904924,30.4601412 33.6345521,30.1973176 L34.6690334,28.2528471 L35.4736826,28.2528471 L33.357095,31.9693176 L35.6300632,35.8514353 L34.7775521,35.8514353 Z" id="Fill-37" fill="#FFFFFF"></path>
                <path d="M37.9637356,32.1696706 L39.3946181,32.1696706 C40.8771535,32.1696706 41.5979259,31.6037882 41.5979259,30.4395529 C41.5979259,29.0106118 40.4840696,28.8179059 39.3946181,28.8179059 L37.9637356,28.8179059 L37.9637356,32.1696706 Z M37.1702226,35.8513176 L37.1702226,28.2529647 L39.5294371,28.2529647 C41.4735323,28.2529647 42.3788812,28.9477882 42.3788812,30.4395529 C42.3788812,31.9056706 41.3401349,32.7463765 39.5294371,32.7463765 L37.9637356,32.7463765 L37.9637356,35.8513176 L37.1702226,35.8513176 Z" id="Fill-39" fill="#FFFFFF"></path>
                <polygon id="Fill-41" fill="#FFFFFF" points="44.1749834 35.8514353 44.1749834 28.2528471 48.5742539 28.2528471 48.5742539 28.8530824 44.9684965 28.8530824 44.9684965 31.5486118 48.010336 31.5486118 48.010336 32.1610824 44.9684965 32.1610824 44.9684965 35.2387294 48.6967521 35.2387294 48.6967521 35.8514353"></polygon>
                <path d="M51.3724004,31.9663294 L52.8397716,31.9663294 C54.5393444,31.9663294 54.8961765,31.0780941 54.8961765,30.3326824 C54.8961765,28.9748 53.7223743,28.8178588 52.8397716,28.8178588 L51.3724004,28.8178588 L51.3724004,31.9663294 Z M54.9438015,35.8515059 L53.0063407,32.5430353 L51.3724004,32.5430353 L51.3724004,35.8515059 L50.5788873,35.8515059 L50.5788873,28.2529176 L52.9871485,28.2529176 C54.7720198,28.2529176 55.6768948,28.9524471 55.6768948,30.3326824 C55.6768948,31.7173882 54.7452455,32.2428 53.9635795,32.4395059 L53.8095683,32.4780941 L55.8325646,35.8515059 L54.9438015,35.8515059 Z" id="Fill-43" fill="#FFFFFF"></path>
                <mask id="mask-2" fill="white">
                    <use xlink:href="#path-1"></use>
                </mask>
                <g id="Clip-46"></g>
                <polygon id="Fill-45" fill="#FFFFFF" mask="url(#mask-2)" points="57.6447313 35.8515294 58.4382444 35.8515294 58.4382444 28.2529412 57.6447313 28.2529412"></polygon>
                <polygon id="Fill-47" fill="#FFFFFF" mask="url(#mask-2)" points="60.8098509 35.8514353 60.8098509 28.2528471 65.2088845 28.2528471 65.2088845 28.8530824 61.603364 28.8530824 61.603364 31.5486118 64.6452035 31.5486118 64.6452035 32.1610824 61.603364 32.1610824 61.603364 35.2387294 65.3316196 35.2387294 65.3316196 35.8514353"></polygon>
                <path d="M71.8359151,35.8514353 L68.9634879,30.9770824 L68.0609823,29.3067294 L67.8150382,29.3067294 C67.8150382,29.3067294 67.8463144,29.7890824 67.8586353,29.9709647 C67.9012845,30.5940235 67.9451185,31.2387294 67.9451185,31.8730824 L67.9451185,35.8514353 L67.2132099,35.8514353 L67.2132099,28.2528471 L68.081833,28.2528471 L70.9663442,33.1147294 L71.8683759,34.7966118 L72.1145569,34.7966118 L72.1067379,34.6714353 C72.0934692,34.4594353 72.0775942,34.2403765 72.0612453,34.0173176 C72.0174114,33.4097882 71.9716819,32.7815529 71.9716819,32.1834353 L71.9716819,28.2528471 L72.7038274,28.2528471 L72.7038274,35.8514353 L71.8359151,35.8514353 Z" id="Fill-48" fill="#FFFFFF" mask="url(#mask-2)"></path>
                <path d="M78.0370929,35.9943529 C75.9633914,35.9943529 74.623494,34.4468235 74.623494,32.052 C74.623494,29.6941176 76.0200201,28.1096471 78.0986974,28.1096471 C78.8526414,28.1096471 79.5878672,28.4188235 80.132119,28.9611765 L79.7129716,29.4211765 C79.2371955,28.9670588 78.7118989,28.7456471 78.1107813,28.7456471 C76.4891619,28.7456471 75.4414119,30.0338824 75.4414119,32.0277647 C75.4414119,34.0508235 76.4699698,35.3583529 78.0617347,35.3583529 C78.7682907,35.3583529 79.3559026,35.0976471 79.9015761,34.54 L80.3174063,34.9797647 C79.6899884,35.6623529 78.9426787,35.9943529 78.0370929,35.9943529" id="Fill-49" fill="#FFFFFF" mask="url(#mask-2)"></path>
                <polygon id="Fill-50" fill="#FFFFFF" mask="url(#mask-2)" points="82.0326646 35.8514353 82.0326646 28.2528471 86.4316981 28.2528471 86.4316981 28.8530824 82.8261776 28.8530824 82.8261776 31.5486118 85.8680172 31.5486118 85.8680172 32.1610824 82.8261776 32.1610824 82.8261776 35.2387294 86.5544332 35.2387294 86.5544332 35.8514353"></polygon>
                <path d="M93.8620985,35.9943529 C91.788397,35.9943529 90.4484996,34.4468235 90.4484996,32.052 C90.4484996,29.6941176 91.8450257,28.1096471 93.923703,28.1096471 C94.677647,28.1096471 95.4128728,28.4188235 95.9568877,28.9611765 L95.5379772,29.4211765 C95.0619642,28.9670588 94.5366675,28.7456471 93.9357869,28.7456471 C92.3141675,28.7456471 91.2664175,30.0338824 91.2664175,32.0277647 C91.2664175,34.0508235 92.2949754,35.3583529 93.8867403,35.3583529 C94.5935332,35.3583529 95.1809082,35.0976471 95.7263448,34.5402353 L96.142175,34.9797647 C95.5147571,35.6623529 94.7674474,35.9943529 93.8620985,35.9943529" id="Fill-51" fill="#FFFFFF" mask="url(#mask-2)"></path>
                <polygon id="Fill-52" fill="#FFFFFF" mask="url(#mask-2)" points="97.8576938 35.8514353 97.8576938 28.2528471 98.6512069 28.2528471 98.6512069 35.2387294 102.158634 35.2387294 102.158634 35.8514353"></polygon>
                <path d="M106.301227,28.7457412 C104.776516,28.7457412 103.791556,30.0295059 103.791556,32.0160941 C103.791556,34.0464471 104.776516,35.3584471 106.301227,35.3584471 C107.818593,35.3584471 108.799052,34.0464471 108.799052,32.0160941 C108.799052,30.0295059 107.818593,28.7457412 106.301227,28.7457412 M106.301227,35.9944471 C104.310929,35.9944471 102.973638,34.3956235 102.973638,32.0160941 C102.973638,29.6429176 104.27989,28.1097412 106.301227,28.1097412 C108.315457,28.1097412 109.61697,29.6429176 109.61697,32.0160941 C109.61697,34.3956235 108.284418,35.9944471 106.301227,35.9944471" id="Fill-53" fill="#FFFFFF" mask="url(#mask-2)"></path>
                <path d="M114.263037,35.9943529 C112.4213,35.9943529 111.487282,34.8969412 111.487282,32.7327059 L111.487282,28.2529412 L112.280321,28.2529412 L112.280321,32.7569412 C112.280321,34.9070588 113.358636,35.3583529 114.263037,35.3583529 C115.189948,35.3583529 116.2948,34.9070588 116.2948,32.7569412 L116.2948,28.2529412 L117.038793,28.2529412 L117.038793,32.7327059 C117.038793,34.8969412 116.104774,35.9943529 114.263037,35.9943529" id="Fill-54" fill="#FFFFFF" mask="url(#mask-2)"></path>
                <path d="M120.168964,35.2746824 L121.194678,35.2746824 C123.090201,35.2746824 124.133923,34.1175059 124.133923,32.0160941 C124.133923,29.9313882 123.117449,28.8295059 121.194678,28.8295059 L120.168964,28.8295059 L120.168964,35.2746824 Z M119.375451,35.8513882 L119.375451,28.2528 L121.268367,28.2528 C123.643693,28.2528 124.951841,29.5892706 124.951841,32.0160941 C124.951841,34.4892706 123.66099,35.8513882 121.317413,35.8513882 L119.375451,35.8513882 Z" id="Fill-55" fill="#FFFFFF" mask="url(#mask-2)"></path>
                <path d="M2.40060802,4.97527059 C2.31365093,4.97527059 2.2276416,5.02491765 2.13713041,5.12703529 C2.05135802,5.22256471 2.00752407,5.35315294 2.00752407,5.51503529 L2.00752407,14.2482118 C2.00752407,14.4011529 2.03761549,14.5326824 2.0970875,14.6397412 C2.12362481,14.6882118 2.20536922,14.8376235 2.35085056,14.8376235 L3.76870131,14.8376235 L3.76870131,4.97527059 L2.40060802,4.97527059 Z M5.33084869,14.8376235 L6.77334123,14.8376235 C6.92948489,14.8376235 7.1917778,14.7611529 7.1917778,14.2482118 L7.1917778,5.51503529 C7.1917778,5.35715294 7.15410429,5.22868235 7.07970504,5.13268235 C6.97663601,5.00232941 6.85627034,4.97527059 6.77334123,4.97527059 L5.33084869,4.97527059 L5.33084869,14.8376235 Z M0.808843097,23.2479765 C0.388274067,23.2479765 0.042104291,22.9340941 0.00348302239,22.5178588 C-0.0164199627,22.3037412 0.0487386194,22.0950353 0.186874813,21.9298588 C0.325011007,21.7644471 0.520012873,21.6625647 0.735391604,21.6428 L3.76870131,21.3644471 L3.76870131,16.3388 L2.02624235,16.3388 C1.6878916,16.3388 1.41375168,16.3072706 1.21140466,16.2449176 C1.01782444,16.1860941 0.874238619,16.0908 0.772354291,15.9529176 C0.667863619,15.8129176 0.595122948,15.6133882 0.556501679,15.3595059 C0.515747948,15.0933882 0.495134142,14.7446824 0.495134142,14.3230353 L0.495134142,5.41527059 C0.495134142,4.68209412 0.601757276,4.15785882 0.811686381,3.85738824 C1.01213787,3.57009412 1.42062295,3.42444706 2.02624235,3.42444706 L3.76870131,3.42444706 L3.76870131,1.04821176 C3.76870131,0.434329412 4.02483377,0.148447059 4.57453526,0.148447059 C4.79441586,0.148447059 4.97212108,0.215270588 5.11760243,0.352211765 C5.25881884,0.486094118 5.33084869,0.720211765 5.33084869,1.04821176 L5.33084869,3.42444706 L7.07330765,3.42444706 C7.71209869,3.42444706 8.13716959,3.57009412 8.33762108,3.85715294 C8.54731325,4.15809412 8.65369944,4.68232941 8.65369944,5.41527059 L8.65369944,14.3230353 C8.65369944,15.0569176 8.54707631,15.5856235 8.33667332,15.8945647 C8.13669571,16.1893882 7.71162481,16.3388 7.07330765,16.3388 L5.33084869,16.3388 L5.33084869,21.2211529 L5.78980205,21.1792706 C6.39139347,21.1242118 6.89844571,20.6971529 7.05150914,20.1171529 L7.29366213,19.1978588 C7.38677966,18.8444471 7.71020317,18.5978588 8.07983004,18.5978588 C8.1478319,18.5978588 8.21583377,18.6063294 8.28241399,18.6230353 C8.49092146,18.6771529 8.66625728,18.8091529 8.77572369,18.9948 C8.88495317,19.1802118 8.91504459,19.3966824 8.86007444,19.6044471 L8.6181584,20.5235059 C8.29355019,21.7569176 7.21641959,22.6644471 5.93836362,22.7813882 L0.883953172,23.2449176 C0.858363619,23.2475059 0.833484888,23.2479765 0.808843097,23.2479765 Z" id="Fill-56" fill="#FFFFFF" mask="url(#mask-2)"></path>
                <path d="M28.814594,4.97527059 C28.7274,4.97527059 28.6411537,5.02491765 28.5506425,5.12703529 C28.4651071,5.22303529 28.4215101,5.35338824 28.4215101,5.51503529 L28.4215101,14.2482118 C28.4215101,14.4011529 28.4516015,14.5329176 28.5108366,14.6397412 C28.5371369,14.6879765 28.6181705,14.8376235 28.7648366,14.8376235 L30.4070698,14.8376235 L30.4070698,4.97527059 L28.814594,4.97527059 Z M32.0189746,14.8376235 L33.4368254,14.8376235 C33.592969,14.8376235 33.855025,14.7611529 33.855025,14.2482118 L33.855025,5.51503529 C33.855025,5.35644706 33.8171146,5.22774118 33.7427153,5.13244706 C33.6621556,5.02938824 33.5564802,4.97527059 33.4368254,4.97527059 L32.0189746,4.97527059 L32.0189746,14.8376235 Z M27.175678,23.2479765 C26.755109,23.2479765 26.4089392,22.9340941 26.3703179,22.5178588 C26.3504149,22.3037412 26.4155735,22.0950353 26.5537097,21.9298588 C26.6918459,21.7644471 26.8866108,21.6625647 27.1019896,21.6428 L30.4070698,21.3397412 L30.4070698,16.3388 L28.4397545,16.3388 C28.1011668,16.3388 27.8272638,16.3072706 27.6253907,16.2449176 C27.4310996,16.1860941 27.2875138,16.0905647 27.1858664,15.9529176 C27.0809019,15.8117412 27.0083981,15.6122118 26.9704877,15.3597412 C26.929734,15.0940941 26.9091201,14.7451529 26.9091201,14.3230353 L26.9091201,5.41527059 C26.9091201,4.68232941 27.0155063,4.15785882 27.2254354,3.85738824 C27.42565,3.57009412 27.8341351,3.42444706 28.4397545,3.42444706 L30.4070698,3.42444706 L30.4070698,1.04821176 C30.4070698,0.721152941 30.4821799,0.487505882 30.6307414,0.353858824 C30.7847526,0.215741176 30.9837825,0.148447059 31.2382563,0.148447059 C31.4590847,0.148447059 31.6415287,0.215741176 31.7960138,0.354094118 C31.9438646,0.487505882 32.0189746,0.721152941 32.0189746,1.04821176 L32.0189746,3.42444706 L33.7365549,3.42444706 C34.375109,3.42444706 34.8006537,3.57009412 35.0013422,3.85738824 C35.2110343,4.15809412 35.3174205,4.68232941 35.3174205,5.41527059 L35.3174205,14.3230353 C35.3174205,15.0569176 35.2107974,15.5856235 35.0003944,15.8945647 C34.7999429,16.1893882 34.3746351,16.3388 33.7365549,16.3388 L32.0189746,16.3388 L32.0189746,21.1908 L32.1473963,21.1799765 C32.7584653,21.1242118 33.2652806,20.6971529 33.4178701,20.1169176 L33.660497,19.1978588 C33.7531407,18.8444471 34.0765642,18.5978588 34.4466649,18.5978588 C34.5144299,18.5978588 34.5826687,18.6063294 34.6492489,18.6230353 C34.8577563,18.6771529 35.0330922,18.8091529 35.1425586,18.9948 C35.2517881,19.1802118 35.2818795,19.3966824 35.2269093,19.6044471 L34.9847563,20.5235059 C34.660622,21.7569176 33.5837284,22.6644471 32.3051985,22.7813882 L27.2507881,23.2449176 C27.2251985,23.2475059 27.2003198,23.2479765 27.175678,23.2479765 Z" id="Fill-57" fill="#FFFFFF" mask="url(#mask-2)"></path>
            </g>
            <g id="图形" transform="translate(40.611111, 0.000000)">
                <path d="M15.6579019,15.2667521 C7.32525202,15.2810134 0.730879646,21.6782941 0.310379827,29.8237273 L30.7049284,29.8237197 C32.9071625,29.8255042 35.0979045,29.513108 37.2080736,28.8963818 C37.3240655,28.133288 37.3822716,27.3628462 37.3822164,26.5913533 L37.3822165,15.2667521 L15.6579019,15.2667521 Z" id="形状_845_拷贝_10" fill="url(#linearGradient-3)"></path>
                <path d="M22.6907955,0.187790738 C16.73852,0.199151577 11.0345959,2.55820459 6.83389991,6.74595261 C2.63320391,10.9337006 0.279859004,16.6070813 0.291606561,22.5179378 L0.29156279,29.8226544 C0.724839297,21.6772288 7.48882263,15.2799481 15.7017766,15.2656868 L37.1140281,15.2656868 L37.1140281,26.590288 C37.1140825,27.3617809 37.0567125,28.1322227 36.9423868,28.8953165 C46.4459389,26.0483267 52.9453127,17.3500007 52.9345281,7.49250739 L52.9345415,0.187790738 L22.6907955,0.187790738 Z" id="形状_845_拷贝_10-2" fill="url(#linearGradient-4)"></path>
                <path d="M30.5199677,29.824785 L0.297690371,29.824785 C0.284280895,30.0911084 0.278917104,30.359296 0.278917104,30.6293478 L0.278917104,41.9526174 L21.6911686,41.9526174 C29.3222593,41.9403073 35.7987467,36.3917634 36.9296974,28.8974471 C34.8498401,29.5141733 32.6905675,29.8265695 30.5199677,29.824785 Z" id="形状_845_拷贝_10-3" fill="url(#linearGradient-5)"></path>
            </g>
        </g>
    </g>
</svg>